<svg width="205" height="206" viewBox="0 0 205 206" fill="none" xmlns="http://www.w3.org/2000/svg">
<g filter="url(#filter0_d_175_2)">
<circle cx="102.5" cy="99.5" r="92.5" fill="#C62A88"/>
<circle cx="102.5" cy="99.5" r="92" stroke="#E11D74"/>
</g>
<path d="M35.7836 111.693L34.6438 108.676H28.7103L27.537 111.726C27.2353 112.497 26.4978 113 25.6597 113H24.1847C22.475 113 21.704 111.927 22.2739 110.318L28.8108 91.8806C29.079 91.076 29.85 90.5397 30.6881 90.5397H32.9342C33.8057 90.5397 34.5768 91.076 34.845 91.9141L41.0467 110.352C41.5831 111.927 40.8456 113 39.1359 113H37.6609C36.8563 113 36.0853 112.497 35.7836 111.693ZM30.0177 103.781L33.3699 103.748L31.7608 99.6579L30.0177 103.781ZM48.0116 107.837C48.8497 107.737 49.6207 107.502 50.3247 107.167C51.0287 106.865 51.6656 106.43 52.1684 105.893C52.6713 105.39 53.1071 104.753 53.4088 104.049C53.7105 103.345 53.8446 102.641 53.8446 101.87C53.8446 101.099 53.7105 100.328 53.4088 99.5908C53.1071 98.8533 52.6713 98.2164 52.1684 97.6465C51.6321 97.1101 51.0287 96.6743 50.3247 96.3056C49.6207 95.9368 48.8497 95.7357 48.0116 95.6351V107.837ZM48.0116 90.4391C49.5537 90.5397 51.0287 90.9084 52.4031 91.5453C53.7775 92.1823 54.9844 92.9868 55.99 93.9925C56.9622 95.0317 57.7668 96.205 58.3702 97.5459C58.9401 98.8869 59.2418 100.328 59.2418 101.87C59.2418 103.379 58.9736 104.787 58.4037 106.094C57.8338 107.402 57.0293 108.541 56.0236 109.547C54.9844 110.553 53.8111 111.357 52.4366 111.961C51.0622 112.564 49.5872 112.899 48.0116 113H44.6258C43.419 113 42.6144 112.195 42.6144 110.989V92.4505C42.6144 91.2436 43.419 90.4391 44.6258 90.4391H48.0116ZM65.2968 107.837C66.1349 107.737 66.9059 107.502 67.6099 107.167C68.3139 106.865 68.9508 106.43 69.4537 105.893C69.9565 105.39 70.3923 104.753 70.694 104.049C70.9957 103.345 71.1298 102.641 71.1298 101.87C71.1298 101.099 70.9957 100.328 70.694 99.5908C70.3923 98.8533 69.9565 98.2164 69.4537 97.6465C68.9173 97.1101 68.3139 96.6743 67.6099 96.3056C66.9059 95.9368 66.1349 95.7357 65.2968 95.6351V107.837ZM65.2968 90.4391C66.8389 90.5397 68.3139 90.9084 69.6883 91.5453C71.0628 92.1823 72.2696 92.9868 73.2753 93.9925C74.2475 95.0317 75.052 96.205 75.6554 97.5459C76.2253 98.8869 76.527 100.328 76.527 101.87C76.527 103.379 76.2588 104.787 75.6889 106.094C75.1191 107.402 74.3145 108.541 73.3088 109.547C72.2696 110.553 71.0963 111.357 69.7219 111.961C68.3474 112.564 66.8724 112.899 65.2968 113H61.911C60.7042 113 59.8997 112.195 59.8997 110.989V92.4505C59.8997 91.2436 60.7042 90.4391 61.911 90.4391H65.2968ZM80.5707 113H79.1963C77.9894 113 77.1849 112.195 77.1849 110.989V92.5175C77.1849 91.3107 77.9894 90.5061 79.1963 90.5061H80.5707C81.7775 90.5061 82.5821 91.3107 82.5821 92.5175V110.989C82.5821 112.195 81.7775 113 80.5707 113ZM98.93 92.4505V93.6238C98.93 94.8306 98.1254 95.6351 96.9186 95.6351H93.801V110.989C93.801 112.195 92.9964 113 91.7896 113H90.3481C89.1413 113 88.3368 112.195 88.3368 110.989V95.6351H85.2527C84.0458 95.6351 83.2413 94.8306 83.2413 93.6238V92.4505C83.2413 91.2436 84.0458 90.4391 85.2527 90.4391H96.9186C98.1254 90.4391 98.93 91.2436 98.93 92.4505ZM102.996 113H101.621C100.414 113 99.6099 112.195 99.6099 110.989V92.5175C99.6099 91.3107 100.414 90.5061 101.621 90.5061H102.996C104.203 90.5061 105.007 91.3107 105.007 92.5175V110.989C105.007 112.195 104.203 113 102.996 113ZM117.332 107.837C118.237 107.837 119.075 107.67 119.846 107.335C120.584 107.033 121.254 106.597 121.824 106.027C122.394 105.491 122.83 104.854 123.165 104.116C123.5 103.379 123.668 102.608 123.668 101.77C123.668 100.932 123.5 100.161 123.165 99.4232C122.83 98.6857 122.394 98.0153 121.824 97.4454C121.254 96.8755 120.584 96.4397 119.846 96.138C119.075 95.8363 118.237 95.7022 117.332 95.7022C116.461 95.7022 115.656 95.8363 114.919 96.138C114.148 96.4397 113.511 96.8755 112.941 97.4454C112.371 98.0153 111.902 98.6857 111.566 99.4232C111.231 100.161 111.063 100.932 111.063 101.77C111.063 102.608 111.231 103.379 111.566 104.116C111.902 104.854 112.371 105.491 112.941 106.027C113.511 106.597 114.148 107.033 114.919 107.335C115.656 107.67 116.461 107.837 117.332 107.837ZM117.332 90.5061C118.975 90.5061 120.483 90.8078 121.925 91.4113C123.333 92.0147 124.573 92.8192 125.646 93.7914C126.719 94.7971 127.557 96.0039 128.16 97.3783C128.764 98.7528 129.065 100.228 129.065 101.77C129.065 103.312 128.764 104.753 128.16 106.128C127.557 107.502 126.719 108.676 125.646 109.681C124.573 110.72 123.333 111.525 121.925 112.095C120.483 112.698 118.975 113 117.332 113C115.757 113 114.248 112.698 112.807 112.095C111.365 111.525 110.158 110.72 109.119 109.681C108.08 108.676 107.242 107.502 106.605 106.128C105.968 104.753 105.666 103.312 105.666 101.77C105.666 100.228 105.968 98.7528 106.605 97.3783C107.242 96.0039 108.08 94.7971 109.119 93.7914C110.158 92.8192 111.365 92.0147 112.807 91.4113C114.248 90.8078 115.757 90.5061 117.332 90.5061ZM145.249 90.5397H146.59C147.797 90.5397 148.602 91.3442 148.602 92.551V110.989C148.602 112.195 147.797 113 146.59 113H143.908C143.238 113 142.534 112.598 142.199 111.994L135.125 99.8925V110.989C135.125 112.195 134.321 113 133.114 113H131.739C130.533 113 129.728 112.195 129.728 110.989V92.6181C129.728 91.4113 130.533 90.6067 131.739 90.6067H134.488C135.159 90.6067 135.863 91.009 136.198 91.6124L143.238 103.681V92.551C143.238 91.3442 144.042 90.5397 145.249 90.5397ZM163.754 111.693L162.648 108.676H156.681L155.507 111.726C155.206 112.497 154.468 113 153.63 113H152.122C150.412 113 149.641 111.927 150.211 110.318L156.781 91.8806C157.05 91.076 157.821 90.5397 158.659 90.5397H160.905C161.776 90.5397 162.547 91.076 162.815 91.9141L169.051 110.352C169.587 111.927 168.85 113 167.14 113H165.631C164.793 113 164.022 112.464 163.754 111.693ZM157.988 103.748H161.34L159.765 99.6579L157.988 103.748ZM182.551 113H172.628C171.421 113 170.617 112.195 170.617 110.989V92.5175C170.617 91.3107 171.421 90.5061 172.628 90.5061H174.003C175.21 90.5061 176.014 91.3107 176.014 92.5175V107.837H182.551C183.758 107.837 184.562 108.642 184.562 109.849V110.989C184.562 112.195 183.758 113 182.551 113Z" fill="white"/>
<path d="M78.7435 133.734V134.697C78.7435 135.687 78.0834 136.348 77.0931 136.348L74.5076 136.375V148.945C74.5076 149.935 73.8474 150.596 72.8572 150.596H71.7295C70.7393 150.596 70.0791 149.935 70.0791 148.945V136.375L67.5211 136.348C66.5308 136.348 65.8707 135.687 65.8707 134.697V133.734C65.8707 132.744 66.5308 132.084 67.5211 132.084H77.0931C78.0834 132.084 78.7435 132.744 78.7435 133.734ZM89.9737 136.403H83.7298V139.181H89.9737C90.9639 139.181 91.624 139.841 91.624 140.831V141.766C91.624 142.756 90.9639 143.417 89.9737 143.417H83.7298V146.36H89.9737C90.9639 146.36 91.624 147.02 91.624 148.01V148.945C91.624 149.935 90.9639 150.596 89.9737 150.596H80.9517C79.9615 150.596 79.3014 149.935 79.3014 148.945V133.872C79.3014 132.882 79.9615 132.222 80.9517 132.222L89.9737 132.167C90.9639 132.167 91.624 132.827 91.624 133.817V134.752C91.624 135.742 90.9639 136.403 89.9737 136.403ZM96.5964 141.711C97.064 141.684 97.5041 141.574 97.9442 141.436C98.3843 141.299 98.7693 141.134 99.0994 140.886C99.402 140.638 99.6495 140.363 99.8421 140.061C100.007 139.758 100.09 139.456 100.09 139.098C100.09 138.741 100.007 138.41 99.8421 138.108C99.6495 137.805 99.402 137.558 99.0994 137.31C98.7693 137.063 98.3843 136.87 97.9442 136.705C97.5041 136.568 97.064 136.485 96.5964 136.485V141.711ZM97.9992 145.837L97.3115 145.92L96.5964 145.947V148.945C96.5964 149.935 95.9362 150.596 94.946 150.596H93.8183C92.8281 150.596 92.1679 149.935 92.1679 148.945V133.872C92.1679 132.882 92.8281 132.222 93.8183 132.222H96.5964C97.7241 132.249 98.7418 132.442 99.7045 132.799C100.667 133.157 101.492 133.652 102.208 134.257C102.923 134.89 103.5 135.605 103.913 136.43C104.326 137.255 104.546 138.135 104.546 139.098C104.546 140.061 104.326 140.941 103.913 141.794C103.473 142.646 102.84 143.389 102.043 144.022L104.848 148.395C105.701 149.715 105.206 150.596 103.665 150.596H101.96C101.41 150.596 100.86 150.293 100.557 149.825L97.9992 145.837ZM122.101 132.139H123.944C124.851 132.139 125.511 132.772 125.566 133.679L126.502 148.835C126.557 149.908 125.896 150.596 124.851 150.596H123.723C122.816 150.596 122.156 149.963 122.101 149.055L121.716 143.059L119.405 149.495C119.185 150.156 118.552 150.596 117.865 150.596H115.774C115.087 150.596 114.454 150.156 114.234 149.495L111.786 142.784L111.373 149.055C111.291 149.99 110.658 150.596 109.723 150.596H108.568C107.522 150.596 106.862 149.88 106.917 148.835L107.963 133.679C108.018 132.744 108.678 132.139 109.613 132.139H111.456C112.143 132.139 112.776 132.579 112.996 133.239L116.792 143.692L120.56 133.239C120.78 132.579 121.413 132.139 122.101 132.139ZM133.66 150.953C133.027 150.953 132.422 150.871 131.817 150.733C131.212 150.568 130.661 150.321 130.139 149.99C129.176 149.385 128.433 148.615 127.938 147.68C127.663 147.212 127.471 146.717 127.333 146.167C127.141 145.259 127.801 144.627 128.764 144.627H130.936C131.322 144.627 131.542 144.874 131.624 145.232C131.679 145.48 131.762 145.672 131.899 145.81C132.119 146.085 132.312 146.277 132.504 146.387C132.807 146.58 133.164 146.69 133.522 146.69C133.88 146.717 134.237 146.635 134.595 146.497C134.842 146.415 135.062 146.277 135.2 146.112L135.53 145.672L135.695 145.287L135.723 144.957L135.695 144.627L135.53 144.214L135.2 143.774C135.062 143.637 134.842 143.499 134.595 143.389L133.99 143.141L133.302 142.921C132.862 142.784 132.394 142.646 131.927 142.454C131.459 142.289 130.964 142.069 130.496 141.794C129.864 141.436 129.369 140.969 128.956 140.391C128.543 139.841 128.241 139.236 128.076 138.603C127.883 137.97 127.828 137.338 127.911 136.65C127.966 135.99 128.158 135.357 128.461 134.725C128.819 134.147 129.204 133.624 129.671 133.212C130.139 132.799 130.661 132.469 131.239 132.222C131.817 132.002 132.422 131.864 133.082 131.782C133.742 131.727 134.43 131.809 135.117 132.002C135.75 132.139 136.355 132.387 136.905 132.689C137.428 133.019 137.896 133.404 138.281 133.844C138.666 134.312 138.968 134.807 139.188 135.385C139.298 135.687 139.381 135.99 139.436 136.293C139.546 136.843 139.161 137.2 138.611 137.2H135.585C135.31 137.2 135.145 137.008 135.035 136.76C134.98 136.623 134.87 136.513 134.732 136.403L134.045 136.072L133.825 136.045H133.385C133.192 136.072 133.027 136.127 132.862 136.21C132.669 136.293 132.532 136.458 132.422 136.678C132.284 136.925 132.257 137.2 132.339 137.503C132.422 137.805 132.587 138.025 132.862 138.218L133.687 138.576L134.595 138.878L135.53 139.153C135.833 139.236 136.163 139.373 136.465 139.511C137.593 140.006 138.501 140.748 139.161 141.711C139.793 142.701 140.123 143.774 140.123 144.957C140.123 146.14 139.793 147.185 139.161 148.148C138.501 149.11 137.593 149.88 136.465 150.403C135.998 150.596 135.53 150.733 135.062 150.816C134.595 150.898 134.127 150.953 133.66 150.953Z" fill="white"/>
<path fill-rule="evenodd" clip-rule="evenodd" d="M84.7246 66.5241L114.985 66.5241C116.168 66.5241 117.127 65.5615 117.127 64.374L117.127 33.9859C117.127 32.7984 116.168 31.8358 114.985 31.8358L84.7246 31.8358C83.5421 31.8358 82.5835 32.7984 82.5835 33.9859L82.5835 64.374C82.5835 65.5615 83.5421 66.5241 84.7246 66.5241ZM112.844 62.224L86.8657 62.224L86.8657 36.136L112.844 36.136L112.844 62.224ZM122.846 39.7762L122.846 70.1644C122.846 71.3518 121.887 72.3145 120.705 72.3145L92.8479 72.3145C92.223 72.3145 91.5866 72.086 91.2747 71.5444C90.6315 70.4273 90.8333 69.2117 91.9955 68.3679C92.3614 68.1023 92.8203 68.0143 93.2724 68.0143L118.564 68.0143L118.564 41.9263L122.846 39.7762Z" fill="white" fill-opacity="0.7"/>
<path d="M101.403 59.9217C100.6 59.9217 99.8036 59.5838 99.2398 58.9277L89.5015 47.5945C88.4715 46.3957 88.6042 44.5855 89.798 43.5511C90.9915 42.5166 92.7941 42.65 93.8244 43.8487L101.748 53.0702L124.234 34.6422C125.456 33.6413 127.254 33.8241 128.251 35.0506C129.248 36.2773 129.066 38.0833 127.844 39.0843L103.206 59.2759C102.677 59.7097 102.038 59.9217 101.403 59.9217Z" fill="white"/>
<defs>
<filter id="filter0_d_175_2" x="0" y="1" width="205" height="205" filterUnits="userSpaceOnUse" color-interpolation-filters="sRGB">
<feFlood flood-opacity="0" result="BackgroundImageFix"/>
<feColorMatrix in="SourceAlpha" type="matrix" values="0 0 0 0 0 0 0 0 0 0 0 0 0 0 0 0 0 0 127 0" result="hardAlpha"/>
<feOffset dy="4"/>
<feGaussianBlur stdDeviation="5"/>
<feComposite in2="hardAlpha" operator="out"/>
<feColorMatrix type="matrix" values="0 0 0 0 0 0 0 0 0 0 0 0 0 0 0 0 0 0 0.05 0"/>
<feBlend mode="normal" in2="BackgroundImageFix" result="effect1_dropShadow_175_2"/>
<feBlend mode="normal" in="SourceGraphic" in2="effect1_dropShadow_175_2" result="shape"/>
</filter>
</defs>
</svg>
