<svg width="355" height="57" fill="none" xmlns="http://www.w3.org/2000/svg">
<path opacity="0.7" fill-rule="evenodd" clip-rule="evenodd" d="M8.08609 44.1148L39.7631 44.1148C41.0009 44.1148 42.0044 43.1071 42.0044 41.8641L42.0044 10.0538C42.0044 8.81079 41.0009 7.80312 39.7631 7.80312L8.08609 7.80312C6.84825 7.80312 5.84481 8.81079 5.84481 10.0538L5.84481 41.8641C5.84481 43.1071 6.84825 44.1148 8.08609 44.1148ZM37.5218 39.6134L10.3274 39.6134L10.3274 12.3045L37.5218 12.3045L37.5218 39.6134ZM47.9913 16.1151L47.9913 47.9254C47.9913 49.1684 46.9879 50.1761 45.7501 50.1761L16.5896 50.1761C15.9354 50.1761 15.2692 49.9369 14.9428 49.37C14.2695 48.2006 14.4807 46.9281 15.6973 46.0449C16.0803 45.7668 16.5606 45.6747 17.0339 45.6746L43.5088 45.6747L43.5088 18.3658L47.9913 16.1151Z" fill="white"/>
<path d="M25.5446 37.2033C24.7047 37.2033 23.8708 36.8496 23.2805 36.1628L13.0865 24.2992C12.0084 23.0444 12.1472 21.1495 13.3969 20.0667C14.6462 18.9837 16.5333 19.1234 17.6117 20.3782L25.9061 30.0312L49.4447 10.7408C50.7234 9.69307 52.6059 9.88443 53.6495 11.1684C54.693 12.4524 54.5024 14.3429 53.2238 15.3909L27.4326 36.5273C26.8784 36.9814 26.2095 37.2033 25.5446 37.2033Z" fill="white"/>
<path d="M83.1737 40.3784L81.8477 36.8684H74.9447L73.5797 40.4174C73.2287 41.3144 72.3707 41.8994 71.3957 41.8994H69.6797C67.6907 41.8994 66.7937 40.6514 67.4567 38.7794L75.0617 17.3294C75.3737 16.3934 76.2707 15.7694 77.2457 15.7694H79.8587C80.8727 15.7694 81.7697 16.3934 82.0817 17.3684L89.2967 38.8184C89.9207 40.6514 89.0627 41.8994 87.0737 41.8994H85.3577C84.4217 41.8994 83.5247 41.3144 83.1737 40.3784ZM76.4657 31.1744L80.3657 31.1354L78.4937 26.3774L76.4657 31.1744ZM97.3995 35.8934C98.3745 35.7764 99.2715 35.5034 100.091 35.1134C100.91 34.7624 101.651 34.2554 102.236 33.6314C102.821 33.0464 103.328 32.3054 103.679 31.4864C104.03 30.6674 104.186 29.8484 104.186 28.9514C104.186 28.0544 104.03 27.1574 103.679 26.2994C103.328 25.4414 102.821 24.7004 102.236 24.0374C101.612 23.4134 100.91 22.9064 100.091 22.4774C99.2715 22.0484 98.3745 21.8144 97.3995 21.6974V35.8934ZM97.3995 15.6524C99.1935 15.7694 100.91 16.1984 102.509 16.9394C104.108 17.6804 105.512 18.6164 106.682 19.7864C107.813 20.9954 108.749 22.3604 109.451 23.9204C110.114 25.4804 110.465 27.1574 110.465 28.9514C110.465 30.7064 110.153 32.3444 109.49 33.8654C108.827 35.3864 107.891 36.7124 106.721 37.8824C105.512 39.0524 104.147 39.9884 102.548 40.6904C100.949 41.3924 99.2325 41.7824 97.3995 41.8994H93.4605C92.0565 41.8994 91.1205 40.9634 91.1205 39.5594V17.9924C91.1205 16.5884 92.0565 15.6524 93.4605 15.6524H97.3995ZM117.509 35.8934C118.484 35.7764 119.381 35.5034 120.2 35.1134C121.019 34.7624 121.76 34.2554 122.345 33.6314C122.93 33.0464 123.437 32.3054 123.788 31.4864C124.139 30.6674 124.295 29.8484 124.295 28.9514C124.295 28.0544 124.139 27.1574 123.788 26.2994C123.437 25.4414 122.93 24.7004 122.345 24.0374C121.721 23.4134 121.019 22.9064 120.2 22.4774C119.381 22.0484 118.484 21.8144 117.509 21.6974V35.8934ZM117.509 15.6524C119.303 15.7694 121.019 16.1984 122.618 16.9394C124.217 17.6804 125.621 18.6164 126.791 19.7864C127.922 20.9954 128.858 22.3604 129.56 23.9204C130.223 25.4804 130.574 27.1574 130.574 28.9514C130.574 30.7064 130.262 32.3444 129.599 33.8654C128.936 35.3864 128 36.7124 126.83 37.8824C125.621 39.0524 124.256 39.9884 122.657 40.6904C121.058 41.3924 119.342 41.7824 117.509 41.8994H113.57C112.166 41.8994 111.23 40.9634 111.23 39.5594V17.9924C111.23 16.5884 112.166 15.6524 113.57 15.6524H117.509ZM135.278 41.8994H133.679C132.275 41.8994 131.339 40.9634 131.339 39.5594V18.0704C131.339 16.6664 132.275 15.7304 133.679 15.7304H135.278C136.682 15.7304 137.618 16.6664 137.618 18.0704V39.5594C137.618 40.9634 136.682 41.8994 135.278 41.8994ZM156.637 17.9924V19.3574C156.637 20.7614 155.701 21.6974 154.297 21.6974H150.67V39.5594C150.67 40.9634 149.734 41.8994 148.33 41.8994H146.653C145.249 41.8994 144.313 40.9634 144.313 39.5594V21.6974H140.725C139.321 21.6974 138.385 20.7614 138.385 19.3574V17.9924C138.385 16.5884 139.321 15.6524 140.725 15.6524H154.297C155.701 15.6524 156.637 16.5884 156.637 17.9924ZM161.367 41.8994H159.768C158.364 41.8994 157.428 40.9634 157.428 39.5594V18.0704C157.428 16.6664 158.364 15.7304 159.768 15.7304H161.367C162.771 15.7304 163.707 16.6664 163.707 18.0704V39.5594C163.707 40.9634 162.771 41.8994 161.367 41.8994ZM178.046 35.8934C179.099 35.8934 180.074 35.6984 180.971 35.3084C181.829 34.9574 182.609 34.4504 183.272 33.7874C183.935 33.1634 184.442 32.4224 184.832 31.5644C185.222 30.7064 185.417 29.8094 185.417 28.8344C185.417 27.8594 185.222 26.9624 184.832 26.1044C184.442 25.2464 183.935 24.4664 183.272 23.8034C182.609 23.1404 181.829 22.6334 180.971 22.2824C180.074 21.9314 179.099 21.7754 178.046 21.7754C177.032 21.7754 176.096 21.9314 175.238 22.2824C174.341 22.6334 173.6 23.1404 172.937 23.8034C172.274 24.4664 171.728 25.2464 171.338 26.1044C170.948 26.9624 170.753 27.8594 170.753 28.8344C170.753 29.8094 170.948 30.7064 171.338 31.5644C171.728 32.4224 172.274 33.1634 172.937 33.7874C173.6 34.4504 174.341 34.9574 175.238 35.3084C176.096 35.6984 177.032 35.8934 178.046 35.8934ZM178.046 15.7304C179.957 15.7304 181.712 16.0814 183.389 16.7834C185.027 17.4854 186.47 18.4214 187.718 19.5524C188.966 20.7224 189.941 22.1264 190.643 23.7254C191.345 25.3244 191.696 27.0404 191.696 28.8344C191.696 30.6284 191.345 32.3054 190.643 33.9044C189.941 35.5034 188.966 36.8684 187.718 38.0384C186.47 39.2474 185.027 40.1834 183.389 40.8464C181.712 41.5484 179.957 41.8994 178.046 41.8994C176.213 41.8994 174.458 41.5484 172.781 40.8464C171.104 40.1834 169.7 39.2474 168.491 38.0384C167.282 36.8684 166.307 35.5034 165.566 33.9044C164.825 32.3054 164.474 30.6284 164.474 28.8344C164.474 27.0404 164.825 25.3244 165.566 23.7254C166.307 22.1264 167.282 20.7224 168.491 19.5524C169.7 18.4214 171.104 17.4854 172.781 16.7834C174.458 16.0814 176.213 15.7304 178.046 15.7304ZM210.524 15.7694H212.084C213.488 15.7694 214.424 16.7054 214.424 18.1094V39.5594C214.424 40.9634 213.488 41.8994 212.084 41.8994H208.964C208.184 41.8994 207.365 41.4314 206.975 40.7294L198.746 26.6504V39.5594C198.746 40.9634 197.81 41.8994 196.406 41.8994H194.807C193.403 41.8994 192.467 40.9634 192.467 39.5594V18.1874C192.467 16.7834 193.403 15.8474 194.807 15.8474H198.005C198.785 15.8474 199.604 16.3154 199.994 17.0174L208.184 31.0574V18.1094C208.184 16.7054 209.12 15.7694 210.524 15.7694ZM232.053 40.3784L230.765 36.8684H223.823L222.458 40.4174C222.107 41.3144 221.249 41.8994 220.274 41.8994H218.519C216.53 41.8994 215.633 40.6514 216.296 38.7794L223.94 17.3294C224.252 16.3934 225.149 15.7694 226.124 15.7694H228.737C229.751 15.7694 230.648 16.3934 230.961 17.3684L238.214 38.8184C238.839 40.6514 237.981 41.8994 235.992 41.8994H234.236C233.261 41.8994 232.364 41.2754 232.053 40.3784ZM225.344 31.1354H229.244L227.411 26.3774L225.344 31.1354ZM253.921 41.8994H242.377C240.973 41.8994 240.037 40.9634 240.037 39.5594V18.0704C240.037 16.6664 240.973 15.7304 242.377 15.7304H243.976C245.38 15.7304 246.316 16.6664 246.316 18.0704V35.8934H253.921C255.325 35.8934 256.261 36.8294 256.261 38.2334V39.5594C256.261 40.9634 255.325 41.8994 253.921 41.8994Z" fill="white"/>
<path d="M282.755 23.2834V24.4034C282.755 25.5554 281.987 26.3234 280.835 26.3234L277.827 26.3554V40.9794C277.827 42.1314 277.059 42.8994 275.907 42.8994H274.595C273.443 42.8994 272.675 42.1314 272.675 40.9794V26.3554L269.699 26.3234C268.547 26.3234 267.779 25.5554 267.779 24.4034V23.2834C267.779 22.1314 268.547 21.3634 269.699 21.3634H280.835C281.987 21.3634 282.755 22.1314 282.755 23.2834ZM295.82 26.3874H288.556V29.6194H295.82C296.972 29.6194 297.74 30.3874 297.74 31.5394V32.6274C297.74 33.7794 296.972 34.5474 295.82 34.5474H288.556V37.9714H295.82C296.972 37.9714 297.74 38.7394 297.74 39.8914V40.9794C297.74 42.1314 296.972 42.8994 295.82 42.8994H285.324C284.172 42.8994 283.404 42.1314 283.404 40.9794V23.4434C283.404 22.2914 284.172 21.5234 285.324 21.5234L295.82 21.4594C296.972 21.4594 297.74 22.2274 297.74 23.3794V24.4674C297.74 25.6194 296.972 26.3874 295.82 26.3874ZM303.525 32.5634C304.069 32.5314 304.581 32.4034 305.093 32.2434C305.605 32.0834 306.053 31.8914 306.437 31.6034C306.789 31.3154 307.077 30.9954 307.301 30.6434C307.493 30.2914 307.589 29.9394 307.589 29.5234C307.589 29.1074 307.493 28.7234 307.301 28.3714C307.077 28.0194 306.789 27.7314 306.437 27.4434C306.053 27.1554 305.605 26.9314 305.093 26.7394C304.581 26.5794 304.069 26.4834 303.525 26.4834V32.5634ZM305.157 37.3634L304.357 37.4594L303.525 37.4914V40.9794C303.525 42.1314 302.757 42.8994 301.605 42.8994H300.293C299.141 42.8994 298.373 42.1314 298.373 40.9794V23.4434C298.373 22.2914 299.141 21.5234 300.293 21.5234H303.525C304.837 21.5554 306.021 21.7794 307.141 22.1954C308.261 22.6114 309.221 23.1874 310.053 23.8914C310.885 24.6274 311.557 25.4594 312.037 26.4194C312.517 27.3794 312.773 28.4034 312.773 29.5234C312.773 30.6434 312.517 31.6674 312.037 32.6594C311.525 33.6514 310.789 34.5154 309.861 35.2514L313.125 40.3394C314.117 41.8754 313.541 42.8994 311.749 42.8994H309.765C309.125 42.8994 308.485 42.5474 308.133 42.0034L305.157 37.3634ZM333.196 21.4274H335.34C336.396 21.4274 337.164 22.1634 337.228 23.2194L338.316 40.8514C338.38 42.0994 337.612 42.8994 336.396 42.8994H335.084C334.028 42.8994 333.26 42.1634 333.196 41.1074L332.748 34.1314L330.06 41.6194C329.804 42.3874 329.068 42.8994 328.268 42.8994H325.836C325.036 42.8994 324.3 42.3874 324.044 41.6194L321.196 33.8114L320.716 41.1074C320.62 42.1954 319.884 42.8994 318.796 42.8994H317.452C316.236 42.8994 315.468 42.0674 315.532 40.8514L316.748 23.2194C316.812 22.1314 317.58 21.4274 318.668 21.4274H320.812C321.612 21.4274 322.348 21.9394 322.604 22.7074L327.02 34.8674L331.404 22.7074C331.66 21.9394 332.396 21.4274 333.196 21.4274ZM346.644 43.3154C345.908 43.3154 345.204 43.2194 344.5 43.0594C343.796 42.8674 343.156 42.5794 342.548 42.1954C341.428 41.4914 340.564 40.5954 339.988 39.5074C339.668 38.9634 339.444 38.3874 339.284 37.7474C339.06 36.6914 339.828 35.9554 340.948 35.9554H343.476C343.924 35.9554 344.18 36.2434 344.276 36.6594C344.34 36.9474 344.436 37.1714 344.596 37.3314C344.852 37.6514 345.076 37.8754 345.3 38.0034C345.652 38.2274 346.068 38.3554 346.484 38.3554C346.9 38.3874 347.316 38.2914 347.732 38.1314C348.02 38.0354 348.276 37.8754 348.436 37.6834L348.82 37.1714L349.012 36.7234L349.044 36.3394L349.012 35.9554L348.82 35.4754L348.436 34.9634C348.276 34.8034 348.02 34.6434 347.732 34.5154L347.028 34.2274L346.228 33.9714C345.716 33.8114 345.172 33.6514 344.628 33.4274C344.084 33.2354 343.508 32.9794 342.964 32.6594C342.228 32.2434 341.652 31.6994 341.172 31.0274C340.692 30.3874 340.34 29.6834 340.148 28.9474C339.924 28.2114 339.86 27.4754 339.956 26.6754C340.02 25.9074 340.244 25.1714 340.596 24.4354C341.012 23.7634 341.46 23.1554 342.004 22.6754C342.548 22.1954 343.156 21.8114 343.828 21.5234C344.5 21.2674 345.204 21.1074 345.972 21.0114C346.74 20.9474 347.54 21.0434 348.34 21.2674C349.076 21.4274 349.78 21.7154 350.42 22.0674C351.028 22.4514 351.572 22.8994 352.02 23.4114C352.468 23.9554 352.82 24.5314 353.076 25.2034C353.204 25.5554 353.3 25.9074 353.364 26.2594C353.492 26.8994 353.044 27.3154 352.404 27.3154H348.884C348.564 27.3154 348.372 27.0914 348.244 26.8034C348.18 26.6434 348.052 26.5154 347.892 26.3874L347.092 26.0034L346.836 25.9714H346.324C346.1 26.0034 345.908 26.0674 345.716 26.1634C345.492 26.2594 345.332 26.4514 345.204 26.7074C345.044 26.9954 345.012 27.3154 345.108 27.6674C345.204 28.0194 345.396 28.2754 345.716 28.4994L346.676 28.9154L347.732 29.2674L348.82 29.5874C349.172 29.6834 349.556 29.8434 349.908 30.0034C351.22 30.5794 352.276 31.4434 353.044 32.5634C353.78 33.7154 354.164 34.9634 354.164 36.3394C354.164 37.7154 353.78 38.9314 353.044 40.0514C352.276 41.1714 351.22 42.0674 349.908 42.6754C349.364 42.8994 348.82 43.0594 348.276 43.1554C347.732 43.2514 347.188 43.3154 346.644 43.3154Z" fill="white"/>
</svg>
