<svg width="192" height="167" fill="none" xmlns="http://www.w3.org/2000/svg"><path fill-rule="evenodd" clip-rule="evenodd" d="M9.33 143.066h124.806c4.877 0 8.83-3.97 8.83-8.868V8.868c0-4.898-3.953-8.868-8.83-8.868H9.331C4.454 0 .5 3.97.5 8.868v125.33c0 4.898 3.954 8.868 8.83 8.868Zm115.975-17.736H18.161V17.735h107.144V125.33Z" fill="#00818A"/><path d="M166.555 32.749v125.33c0 4.898-3.954 8.868-8.831 8.868H42.834c-2.578 0-5.203-.942-6.489-3.176-2.652-4.607-1.82-9.621 2.973-13.101 1.51-1.095 3.402-1.458 5.266-1.458h104.31V41.616l17.661-8.867Z" fill="#00818A"/><path d="M78.116 115.835a11.73 11.73 0 0 1-8.92-4.1L29.032 64.994c-4.248-4.944-3.7-12.41 1.223-16.676 4.922-4.267 12.357-3.717 16.606 1.227l32.68 38.032 92.74-76.003c5.038-4.128 12.455-3.374 16.567 1.685 4.111 5.059 3.36 12.507-1.678 16.636L85.554 113.172a11.702 11.702 0 0 1-7.438 2.663Z" fill="#E11D74"/></svg>